<mxfile host="app.diagrams.net" modified="2022-09-07T08:17:07.354Z" agent="5.0 (Windows NT 10.0; Win64; x64) AppleWebKit/537.36 (KHTML, like Gecko) Chrome/105.0.0.0 Safari/537.36" etag="se5MqZkmqP8372E7SJbf" version="20.2.8" type="github">
  <diagram id="uNBOLuVhgGo2MyKxPD7P" name="Page-1">
    <mxGraphModel dx="981" dy="576" grid="1" gridSize="10" guides="1" tooltips="1" connect="1" arrows="1" fold="1" page="1" pageScale="1" pageWidth="1100" pageHeight="850" math="1" shadow="0">
      <root>
        <mxCell id="0" />
        <mxCell id="1" parent="0" />
        <mxCell id="rtHGFJQZ5BcF_f9TNZza-175" value="&amp;nbsp; &amp;nbsp; &amp;nbsp; &amp;nbsp; High-resolution block" style="rounded=1;whiteSpace=wrap;html=1;verticalAlign=top;align=left;" vertex="1" parent="1">
          <mxGeometry x="379.5" y="380" width="220" height="126" as="geometry" />
        </mxCell>
        <mxCell id="rtHGFJQZ5BcF_f9TNZza-176" value="Low-resolution block" style="rounded=1;whiteSpace=wrap;html=1;verticalAlign=top;" vertex="1" parent="1">
          <mxGeometry x="222" y="250" width="628" height="104" as="geometry" />
        </mxCell>
        <mxCell id="rtHGFJQZ5BcF_f9TNZza-177" value="" style="endArrow=block;html=1;rounded=1;strokeWidth=1;entryX=0;entryY=0.5;entryDx=0;entryDy=0;endFill=1;" edge="1" parent="1" target="rtHGFJQZ5BcF_f9TNZza-189">
          <mxGeometry width="50" height="50" relative="1" as="geometry">
            <mxPoint x="439" y="305" as="sourcePoint" />
            <mxPoint x="477" y="305" as="targetPoint" />
          </mxGeometry>
        </mxCell>
        <mxCell id="rtHGFJQZ5BcF_f9TNZza-178" value="" style="endArrow=block;html=1;rounded=1;endFill=1;entryX=0;entryY=0.5;entryDx=0;entryDy=0;" edge="1" parent="1" target="rtHGFJQZ5BcF_f9TNZza-179">
          <mxGeometry width="50" height="50" relative="1" as="geometry">
            <mxPoint x="180" y="305" as="sourcePoint" />
            <mxPoint x="300" y="340" as="targetPoint" />
          </mxGeometry>
        </mxCell>
        <mxCell id="rtHGFJQZ5BcF_f9TNZza-179" value="Downscaling" style="rounded=1;whiteSpace=wrap;html=1;verticalAlign=top;" vertex="1" parent="1">
          <mxGeometry x="240" y="267" width="90" height="76" as="geometry" />
        </mxCell>
        <mxCell id="rtHGFJQZ5BcF_f9TNZza-180" value="" style="endArrow=block;html=1;rounded=1;endFill=1;exitX=1;exitY=0.5;exitDx=0;exitDy=0;" edge="1" parent="1" source="rtHGFJQZ5BcF_f9TNZza-179">
          <mxGeometry width="50" height="50" relative="1" as="geometry">
            <mxPoint x="220" y="315" as="sourcePoint" />
            <mxPoint x="360" y="305" as="targetPoint" />
          </mxGeometry>
        </mxCell>
        <mxCell id="rtHGFJQZ5BcF_f9TNZza-181" value="" style="group;rounded=1;" vertex="1" connectable="0" parent="1">
          <mxGeometry x="398" y="295" width="50" height="20" as="geometry" />
        </mxCell>
        <mxCell id="rtHGFJQZ5BcF_f9TNZza-186" value="" style="shape=crossbar;whiteSpace=wrap;html=1;rounded=1;rotation=90;" vertex="1" parent="rtHGFJQZ5BcF_f9TNZza-181">
          <mxGeometry x="2" y="5" width="20" height="10" as="geometry" />
        </mxCell>
        <mxCell id="rtHGFJQZ5BcF_f9TNZza-187" value="$$K$$" style="text;html=1;align=center;verticalAlign=middle;resizable=0;points=[];autosize=1;strokeColor=none;fillColor=none;rounded=1;" vertex="1" parent="rtHGFJQZ5BcF_f9TNZza-181">
          <mxGeometry width="50" height="20" as="geometry" />
        </mxCell>
        <mxCell id="rtHGFJQZ5BcF_f9TNZza-188" style="edgeStyle=orthogonalEdgeStyle;rounded=1;orthogonalLoop=1;jettySize=auto;html=1;exitX=1;exitY=0.5;exitDx=0;exitDy=0;entryX=0;entryY=0.5;entryDx=0;entryDy=0;endArrow=block;endFill=1;" edge="1" parent="1" source="rtHGFJQZ5BcF_f9TNZza-189" target="rtHGFJQZ5BcF_f9TNZza-191">
          <mxGeometry relative="1" as="geometry" />
        </mxCell>
        <mxCell id="rtHGFJQZ5BcF_f9TNZza-189" value="Encoder" style="rounded=1;whiteSpace=wrap;html=1;" vertex="1" parent="1">
          <mxGeometry x="466" y="293.75" width="74" height="22.5" as="geometry" />
        </mxCell>
        <mxCell id="rtHGFJQZ5BcF_f9TNZza-190" style="edgeStyle=orthogonalEdgeStyle;rounded=1;orthogonalLoop=1;jettySize=auto;html=1;exitX=0.5;exitY=0;exitDx=0;exitDy=0;endArrow=none;endFill=0;startArrow=block;startFill=1;" edge="1" parent="1" source="rtHGFJQZ5BcF_f9TNZza-258">
          <mxGeometry relative="1" as="geometry">
            <mxPoint x="920" y="334" as="targetPoint" />
            <Array as="points">
              <mxPoint x="539" y="370" />
              <mxPoint x="920" y="370" />
            </Array>
          </mxGeometry>
        </mxCell>
        <mxCell id="rtHGFJQZ5BcF_f9TNZza-191" value="Decoder" style="rounded=1;whiteSpace=wrap;html=1;" vertex="1" parent="1">
          <mxGeometry x="562" y="293.75" width="74" height="22.5" as="geometry" />
        </mxCell>
        <mxCell id="rtHGFJQZ5BcF_f9TNZza-192" style="edgeStyle=orthogonalEdgeStyle;rounded=1;orthogonalLoop=1;jettySize=auto;html=1;exitX=1;exitY=0.5;exitDx=0;exitDy=0;endArrow=block;endFill=1;" edge="1" parent="1" source="rtHGFJQZ5BcF_f9TNZza-191">
          <mxGeometry relative="1" as="geometry">
            <mxPoint x="659" y="305" as="targetPoint" />
            <mxPoint x="660" y="305" as="sourcePoint" />
          </mxGeometry>
        </mxCell>
        <mxCell id="rtHGFJQZ5BcF_f9TNZza-193" style="edgeStyle=orthogonalEdgeStyle;rounded=1;orthogonalLoop=1;jettySize=auto;html=1;exitX=1;exitY=0.5;exitDx=0;exitDy=0;endArrow=block;endFill=1;" edge="1" parent="1">
          <mxGeometry relative="1" as="geometry">
            <mxPoint x="875" y="305" as="targetPoint" />
            <mxPoint x="835" y="304.9999999999999" as="sourcePoint" />
          </mxGeometry>
        </mxCell>
        <mxCell id="rtHGFJQZ5BcF_f9TNZza-194" value="" style="shape=crossbar;whiteSpace=wrap;html=1;rounded=1;" vertex="1" parent="1">
          <mxGeometry x="894" y="270" width="50" height="10" as="geometry" />
        </mxCell>
        <mxCell id="rtHGFJQZ5BcF_f9TNZza-195" value="$$H$$" style="text;html=1;align=center;verticalAlign=middle;resizable=0;points=[];autosize=1;strokeColor=none;fillColor=none;rounded=1;" vertex="1" parent="1">
          <mxGeometry x="894" y="250" width="50" height="20" as="geometry" />
        </mxCell>
        <mxCell id="rtHGFJQZ5BcF_f9TNZza-203" value="" style="endArrow=block;html=1;rounded=1;strokeWidth=1;entryX=0;entryY=0.5;entryDx=0;entryDy=0;endFill=1;" edge="1" parent="1">
          <mxGeometry width="50" height="50" relative="1" as="geometry">
            <mxPoint x="725" y="305" as="sourcePoint" />
            <mxPoint x="745" y="304.9999999999999" as="targetPoint" />
          </mxGeometry>
        </mxCell>
        <mxCell id="rtHGFJQZ5BcF_f9TNZza-216" style="edgeStyle=orthogonalEdgeStyle;rounded=1;orthogonalLoop=1;jettySize=auto;html=1;exitX=1;exitY=0.5;exitDx=0;exitDy=0;startArrow=none;startFill=0;endArrow=block;endFill=1;" edge="1" parent="1" source="rtHGFJQZ5BcF_f9TNZza-258">
          <mxGeometry relative="1" as="geometry">
            <mxPoint x="632.5" y="451.23655913978484" as="targetPoint" />
          </mxGeometry>
        </mxCell>
        <mxCell id="rtHGFJQZ5BcF_f9TNZza-217" value="" style="shape=crossbar;whiteSpace=wrap;html=1;rounded=1;" vertex="1" parent="1">
          <mxGeometry x="647.5" y="416" width="50" height="10" as="geometry" />
        </mxCell>
        <mxCell id="rtHGFJQZ5BcF_f9TNZza-218" value="$$H$$" style="text;html=1;align=center;verticalAlign=middle;resizable=0;points=[];autosize=1;strokeColor=none;fillColor=none;rounded=1;" vertex="1" parent="1">
          <mxGeometry x="647.5" y="396" width="50" height="20" as="geometry" />
        </mxCell>
        <mxCell id="rtHGFJQZ5BcF_f9TNZza-231" value="" style="endArrow=block;html=1;rounded=1;edgeStyle=orthogonalEdgeStyle;entryX=0;entryY=0.5;entryDx=0;entryDy=0;endFill=1;" edge="1" parent="1" target="rtHGFJQZ5BcF_f9TNZza-272">
          <mxGeometry width="50" height="50" relative="1" as="geometry">
            <mxPoint x="210" y="305" as="sourcePoint" />
            <mxPoint x="329.97" y="465" as="targetPoint" />
            <Array as="points">
              <mxPoint x="210" y="310" />
              <mxPoint x="210" y="451" />
            </Array>
          </mxGeometry>
        </mxCell>
        <mxCell id="rtHGFJQZ5BcF_f9TNZza-243" value="Upscaling" style="rounded=1;whiteSpace=wrap;html=1;verticalAlign=top;" vertex="1" parent="1">
          <mxGeometry x="745" y="267" width="90" height="76" as="geometry" />
        </mxCell>
        <mxCell id="rtHGFJQZ5BcF_f9TNZza-244" value="" style="group;rounded=1;" vertex="1" connectable="0" parent="1">
          <mxGeometry x="768.2844444444444" y="293.75" width="43.42592592592598" height="43.24768518518516" as="geometry" />
        </mxCell>
        <mxCell id="rtHGFJQZ5BcF_f9TNZza-245" value="" style="group;rounded=1;" vertex="1" connectable="0" parent="rtHGFJQZ5BcF_f9TNZza-244">
          <mxGeometry x="2.5555555555556566" width="37.78" height="40" as="geometry" />
        </mxCell>
        <mxCell id="rtHGFJQZ5BcF_f9TNZza-246" value="" style="ellipse;whiteSpace=wrap;html=1;aspect=fixed;rounded=1;" vertex="1" parent="rtHGFJQZ5BcF_f9TNZza-245">
          <mxGeometry x="16.66764705882353" y="15.555555555555555" width="8.88864283649203" height="8.88864283649203" as="geometry" />
        </mxCell>
        <mxCell id="rtHGFJQZ5BcF_f9TNZza-247" value="" style="ellipse;whiteSpace=wrap;html=1;aspect=fixed;rounded=1;fillColor=#0000FF;" vertex="1" parent="rtHGFJQZ5BcF_f9TNZza-245">
          <mxGeometry y="15.555555555555555" width="8.88864283649203" height="8.88864283649203" as="geometry" />
        </mxCell>
        <mxCell id="rtHGFJQZ5BcF_f9TNZza-248" value="" style="ellipse;whiteSpace=wrap;html=1;aspect=fixed;rounded=1;" vertex="1" parent="rtHGFJQZ5BcF_f9TNZza-245">
          <mxGeometry x="28.890588235294118" y="3.333333333333333" width="8.88864283649203" height="8.88864283649203" as="geometry" />
        </mxCell>
        <mxCell id="rtHGFJQZ5BcF_f9TNZza-249" value="" style="ellipse;whiteSpace=wrap;html=1;aspect=fixed;rounded=1;fillColor=#0000FF;" vertex="1" parent="rtHGFJQZ5BcF_f9TNZza-245">
          <mxGeometry x="17.778823529411763" y="31.11111111111111" width="8.88864283649203" height="8.88864283649203" as="geometry" />
        </mxCell>
        <mxCell id="rtHGFJQZ5BcF_f9TNZza-250" style="edgeStyle=none;rounded=1;orthogonalLoop=1;jettySize=auto;html=1;entryX=0;entryY=0.5;entryDx=0;entryDy=0;endArrow=none;endFill=0;" edge="1" parent="rtHGFJQZ5BcF_f9TNZza-245" source="rtHGFJQZ5BcF_f9TNZza-246" target="rtHGFJQZ5BcF_f9TNZza-246">
          <mxGeometry relative="1" as="geometry" />
        </mxCell>
        <mxCell id="rtHGFJQZ5BcF_f9TNZza-251" value="" style="ellipse;whiteSpace=wrap;html=1;aspect=fixed;rounded=1;" vertex="1" parent="rtHGFJQZ5BcF_f9TNZza-245">
          <mxGeometry x="28.890588235294118" y="3.333333333333333" width="8.88864283649203" height="8.88864283649203" as="geometry" />
        </mxCell>
        <mxCell id="rtHGFJQZ5BcF_f9TNZza-252" value="" style="ellipse;whiteSpace=wrap;html=1;aspect=fixed;rounded=1;fillColor=#0000FF;" vertex="1" parent="rtHGFJQZ5BcF_f9TNZza-245">
          <mxGeometry y="15.555555555555555" width="8.88864283649203" height="8.88864283649203" as="geometry" />
        </mxCell>
        <mxCell id="rtHGFJQZ5BcF_f9TNZza-253" value="" style="shape=stencil(lZzZ0hvHDYWf5r+d6n25dpz3cJXlSBVFcslylrcPOkoPyYPhR+lO+okz7OkFODhA8y3/9Mf7X35/95bCH1+/fP77u399+PXr+7f8l7eUPnx6/+7Lh6/2r7f881v+6bfPX9797cvnPz/9+u3/v/+yLNe//vH5n+sJ//6Gi+noaaFS+M+3v9Rw5P6/v/z1G+Djh0+PgP9/fAfoGQDxaO0REI8aAGDPq4+AdNSCgFweAfkI6TlgHi2r/YQRjWPKHJVjwPPHkeSN69Hnc/t+VHnhdoxK9jE+2vejwfjb0cV+7Bl7Yp9l/PMI+PwY1L7B/NRjPM5/C0eE+alH7Wrf8fn5cTwtHimSfUxq32A8Ze+W0z4dcZB9G2rfYT7LUWQ8+Uj4fNkPZj9g/PapjL8cFeYnH2U+2tuMgY/Iezbu7AfY22yIfTsquJR0FNk/diLgvCS3vh33TzzG4/5vdqLh+VH9idl3WK94FHn+PDLMf9yrf2dP/iTqeewB90/c3vLOfsB47NPH8fS4d+wTe3HoPR0BxhM0Ypg9vW/Yu+W0z0fF5xeZn4IxL+zVOe0r+hObbZnPdgTYP+b9stoPHH94PI+97x34zP4xPnbz//x8mZ+5R/jd9rxeYj9sRXA+vf3k8T++74jo39x8Dtuf+L7i38y+4fNl/wzzkBB/g/pbs6d46s7LKEdoP3B+zR4Z2faud/aTCJlSxFFxvzn/afbEr6LG39E243ri/1NU+47xoj6e39GPhPFrdLUfMJ95P+205/Noq+/sJ4zf8YEx9xs9sRf+OQP6K1v9qfbkb231xT7i/qw6n5MzBsdXzX6C/2mbHZ32J6N4wrclXpv9hPM+1J9PY1BwXoaeR7OfsN+m7of54vza8sgL1CNQkmfxfCig0Yk/M7QT0DBERtvTVQHIaYqSiNmZNNXNYe4AdOpjUxo6B9LKaM9rCsB1GDtTvgMQ0Ypzx5UTMJE5pTOQ3gGIui7f3hRAZ8GTYwNUcr7p4h0ou1rphgNQODB/lIIC6HwuB+beYdI7VM2gYwiYEpuPEZ/xEtEvVgLfojs3+WKehvIKA3Q41eZoJPCvpaN3sOe5IRXKFIOmcgbIFDrjZk7feSIMMOQdxt7B14DkouFAdp2zyj0GoHQiGzuLCoiUfxcV6eYLglH3rN8BCikCbSf0dwCSNHJzMathjp+7kjwDVAKcnOg+pNDCTaXlFrSIJhlgdgXQ9i7BbW9LBEkois73FVRmSnJHlEN7yUfOCogEKBfkhMKiATw7yQSomwze0yUCNPcOCUNK6fvI3wEiEdy+ucUdQ2ykqJmrrApI4CrLVI1pBp7W6bjAKRtck+KwOeQdqycVsfq0beIsGUAYk+UZlDfXpG7GEp8JrrJm9d4GyDQkJ1Va6tYodXDaqQEo7Naqe2klq7DSS8uXIRVWo116MviI1q56nOX/pIcu+V+mNe2SxTXAVSgMgC/tUpQRty+8BkxNCAyQKIcLSuJGwLBrgJEUQFlri3qA+txpzjUgaZzuAxmZASTG9ReFlqzKRD9zimeAXhSQaJaKag39rAY9A6hY25AJtKrqdK+ohjWXmPXC6XpTkrj0Wnrp7hYu80v3ra/dAeiIroKArEPCFL8NTZt6RLLepqbg/UzVrkWKcKH6U9nUPhYZoU2UHXrUI7oGSd8QNcataaBvSOqXGh8gA4zHdVilHfoGl1wagPySbbUg79BQjDVACwogv2THxZfLSK4zgBxRO7REsOwEiyDbChZsDCAKX8uYcKwChCtBkl8yxyh+aTlPGtLYzOIERMzZzblLUFxVYJil4XJRCzHEvVdEkz6CiW5mlRUe3cyKqzBLBhCvYaGeXKURBSEntWNqeVP+T0DDhTN2lKRZobK4eSZhJ6Bs7e8a0NQZLxZIgK4RqLL3XixVGkbS5mjXgKEC6uphIYDLRSuXVA0gRNcAJNHOoGfaMgqi0gaQdbAkh+L0dCKwpVFEf2ZUWc0AdOKmy3YtFaywvVciKUOqrJRnTQcMUGBrGEBY5cp/4TxYui3NJgYg5dsAkotaDl9plqq6ypJQRDCA6NKF+1NmU+mxRIxABpAYVwKKarNrCbcEDLtL3H+cpTyRzdzE/RMwsIg+x65B3QESvfTQE5c7OoGbbngCGtZNDSCFzdxQSVzapwypYpxe1YCpAHL3N/32BBT2GlO3xpI76aWdEJIzqg43lfsEJGwHuOnodwDqN7hVA05A5OJUcC0KS6imkvcFIqBUfoG4ye0/gKDGyCvEwP1xheiYVV8hGneQXiAqrvg1Iv0goqA+fYXISMP9tlqdAOTIp1Z4VjGNd7qUMFPiTtipZdjVvEE+be6zeQICqpCrnvPIteJ8NUuipBqApNdVz3l8h3iqt88A9dEJrkouvcPYzOoENGZCQwUIAyCb68rbI+/XFR/lpQvScB+BVwmeNl/bH58AlvENIAWb1StOsaVp9IoR1a9ZlSTHyNGrqgq5msuZOgnXWs3l9NK+lMyTVFxFiDlEUYVwMm/KWqIaPKWufsS1y+kEF1b8zV57J7EQaTmEeLC+m/Oe2WuvN5a0Z3C9vdjuYPbai43lZsvjRKaoGKPNXnpRKyozY+j8VM7vh6P2SBAtNRY9oKAvvXXS3ewx9a6Oi6HrHdUxXDyPo6gWkF4JJkXtqdFpJGWr7OO85JMwEIyoxaLIukHQgkDEDNrsNbrieV8lErWnqxp9uE6ZHQqf2UtYCpi19a7yE5dZvfQZkNX1qucxsMRdVDQM2JW2OtP1+QnOe0/a2xuwFbu79qyA/rO73v+A2dqqMhS1p0LJVEX/hf3Q/cbjaV0lJJ6fdbNEx0Pzv6R4fT6t77pJM96+f/+0rOky78/m7uvx/m9RC7cBBTOzD+pP6Lyvsq2wREytfV047irUtf3Q+MKt+UsfV3tqra7uLl3iunZTgpj5allV/8Dxrrpe7IIMt2bdb2UTtGv75JRsrHEsnVtqTSjpVnd3oXMrudOXOvp/35gzcP+UrneDuCGx+KyHHcQSoF2KQb0XxacYEbvnS3G5YcK+5OJyhsiyQXFJg+WGdMHPd53FjLS7uLTB0lXyo8XlDQYgx1Vc4mAZNPWPlKhMwnJ0UmNKUNf7QgUo563WO50BWx6nVr7iwIsnBpCbSwbAm59Dw02cfPXT5Q8vAnLuupdWRIPzYABhaIsyUttm0xQr8QEygHJ8PkAGkCCYErZ45aq15hfKXnZV1JSxHSQXFbnM0VMilIs6ytX1zt8QBFAx9cuu1rxyY/qGrJqVAXDzZe3NMwB29Ca3+c460jOAtOmv+EPN3kl7YNKLIxr1stGLiJWjRvTVhk+zFFWdXJoS99DrSk/8/YPskkz7C3bpu1YK+wuJjdmlpat+QtdQpjaRrXmjO3pTiUxOmJkuoW0ogKTx9TMRDkDa220jnICMLV5Lm2sKoNJxctm1AUgOsd0v9MfcAh2gdb6KAvBOiWstMl9IGaoB5NcT1u0GBmidtiInXm5LprWhyJpcA5YBcB2qsuJ1f4IvHEn/SO68NYrT1TqG3eTa1HLnH2koGrJe1MtXNawoAI9odvVyLuEvLVBWemK2mrL2SBqAYlxyvNUAxATW3WE3JCpVrvxUEj7ujFjcJSuAJON1XToqgDTOFNUJGABvokXXZfPCe7tbhwZANxN0L5WI9wCSa241ANEff3PyRdNMcux+Xd6h66JTf0bIAMQE4lSC9aLxJ7qeYUvUiDrE6ZqXMsrZcbrNxxEoDtd1lrnYP1wDFlfVDSDce11xgpVe1eGmAGIzKwmbCsBWjaGiUuGWx9g1pXnRdeavHpeKuurKPF3nHDaodBXCDUAJR+zaDbsugvE7CA0t9dUF7eG+gYqPBpDuhtL4RrfLFAs3YMWmQXF1MNJF+abt5AYgkhirpjSFm8gMoAoi/zqSAbSTtPPPdVStGRRuhPuOH5mzf9x+ou63Dx8/fvuFu/vP9Sft7E/ffg4v//xf);fillColor=none;dashed=1;rounded=1;" vertex="1" parent="rtHGFJQZ5BcF_f9TNZza-244">
          <mxGeometry x="17.222222222222285" y="0.2962962962963047" width="26.203703703703702" height="26.28472222222222" as="geometry" />
        </mxCell>
        <mxCell id="rtHGFJQZ5BcF_f9TNZza-254" value="" style="shape=stencil(lZzZsuW2DUW/pl9VHMDp2Un+w1Vux11x3C7bmf4+YDrSuWfjnqXutztgS5RIAhsboD7U737/6ftfP34o6fc/fvv8t4//+vTDHz99qH/6UMqnX376+NunP/ynD/XPH+p3P37+7eNff/v8j19++PL7r99vy/3T3z//c1/h319wlo4xNqqk/3z5S25Hnv/7y1++AH7+9MszwOYzwI61EFCzAlp9DajrqHKHcky4Q53nAN4AiiFAh5QZMI6engHpyB0A/ZjtCbCOBG+1Nn2EcSx6R+1Iz9PmN8xgb0ddYp/pgesxnt9QOxpdvx7p+QXZMel5y1GL2OME5KM/j6cevYF9Ol/fwz7REkpHeX4/5bzhu/Y+naOIfUlon5/t8zEL2M/DZMEdBuP35dK72BdYP3u5yLY/J/CVfXpez4nH387bP+w7jccO0+sbrJ89/Xr9Stcv5/Z42BcafzlSF/sM681fX9Xr/3+Dvm+fjqbXT7D+81J/knC+3F78w83151G+Zfx5HGV+w/vJXfeXv3/wnx6Egr3R9d2/6fuk9Zbr6c6+bj17QJH9nvl95mPp/ir0PrPul4wx0sNPa2I/wD+sYz1PVzn38wtzU3PyJh5/m5iTs/LoO8R8wtWHMpSKrnac/32YN3jz/RhqvmBi+xmm3sQt8FPtmGpOYaWpF2Rq5Uzt+c20M6q+z8SOVcS8o/kwMaeQburROvNIJXkdHb6pf7oI1gvz9LydBrqbqt7VwymsmXr+9zSfTO7Orfwwp+1Rj9rEHKngSeQeTLNS5DxWF/MJb8b9nnDxi86/sI9EeeD1TfwqM/Gi68DtJwVCXfPuyY0c8dGf36ZHigLP67RM/Pa19F7Y6/ivXfmufdLp8shIuVBS3u6Rl+bX44jM10BnnJS3O3Og+U3heRcS96SreQd+HI/wHH/D5HaS5imbiON41L4cDedL7X1/4nxFe54vtedkOto3TFzfs5+wXy5aedn3o8H+jfM1cL/7eshqv3j9CHOZZ2b0an0KdVknk/y69V+ZKCf1D5WJZtJY4Zlvw/GIv9qZNb5P8eeVE+OYR1fc71nn96E8fJ0/3MoGvJ+sOobbkz/JJ/m77Ps54y/s9f2wsFJ0v9RxstsX9kLZ3J78fwnPOzkxDs+7MFEJ8d3tOwkBGo8sncrGK3Yy1L6T0KPPa/nm+sI3LCPDrieHvew5E7Iw/oL+zU5qd9lXXM8WxlNRaGtKDo35RlPdw+0bPG8/vcdl304P/MJ+ZbVvsN/HGT0v+47Xn5rNuT1dP6SiNpCbL9XN3P4m8a5VAYsIaFblzOadFDCTAmhLOqNtUwGUwzqlFbHEFg/JTnHnDYB22Sa1VQE4pKb6SkvIC5zWiiDsABzSUM/oAGISTmyFGreMub4zW+sKIO6xyURTAA1pR0sZUsFotsNTUQC5ly3FmAIw/gUhtlXc0DvxzwowBoh25YBBIeryQBfA7sTtMhRAJCp6PQeQYLDdnsx0Q7e0/V5VAPmlcm35C9CP9E0VDAeQUObEVSTTNlCIc+YqbsYBi2JzOTX5C+DJJUkfVdl+WyhpORkVut8ThpMa4m3PDOih0FaQwG++KHeoXB6dKkF2Ox3P+4B1MvwL0JCTO0CWd+/ojHcR+dkv9YHlRSdpqv6Nk1i+AogT6PNkru8Diu64vrAi4LwrP6/WkVCmsysRugAZvYYzL6EOo2Du5QAp0jmAknHnXnqHenKDV4AhZWdjCbmfOuobAFb/PU7LHRoGxc3Xnpf3uGpHrwA2FECCqQOmPMPgpTG1GDXmUcHzOUB861jojJ0diew1Lvf8CiBsZibMS1oQXmbGmXaA3qHgnm5ZU2EHUGrbgnY6ObC3rDL9NBTjNjt69hqz4RZ1gCr7HdNPpyJSaHAA6actqvvj5JmvAKLwzIlewwGSok+WaFtgZHNhfNhkpyoA61SmWdlKmIU62ZEhrcyLr2mxygGDAF2p9Coo3DhA71BRWXGyUwOASOJmR8+rdRmmZZsdJQXg4vMMRYZ08Zv3s/t0+rk3AIpAzo4kU1yd71A0PXYAFXQcIER3DazQ9BCnHUCu0umUJH4OoMqn0ylhlWvykLrGOAdQWuYAidOLmXEP2a4DiGA5nRK/tBbuOKdToow5gFpwnE6Jq3QAeW8HSO3OAbSBRogPDiCSOEJXkAOoujaCfOgAeq0jeL6cuHNnhE6rW8TQ3rI9KJqJGTbpwiKYk5ES7kDedSaliXuuSbbLSrEcYPDQM+SKe73CXM+qlSTfEbSrHSAa1t6k9AymWvqayFydjPTgykj/cW4h1XIHUL7r3EI36UANywG6hTrm7M4tLADIuzpVEElqdZQRHCCNJTsGwfJ2bqF3aJggr9DS7ACiWCsFPmNY1Vgh33UAlYVXEIGdPAzq2CqBz1RseVkhQfa/DJjpFQNvwR3nA1AClDHP2vxoKYCKG/4SlTwk7O5wgBAgX13kBDahSgqgtMlXjvjWG/a9mspqc6LY8lj9bzIIXHw9DGnw8u6aUW/HwwAdUsMuBvdCOqSGHYYO0FzRUFZzgKTg7s8ptLuv1vS1YovwCqqAxyRyxjt8yOJjuX9zvKUA8t6b4wVVgIoi6z3dgeo0a2n/w+DS0Q7jos5MnrigbIzBa2lpFN2EiB96SLdfR66x2ZE8dEOh4sEiv1IlexC2NwAq7Dxo51ulj4qEKXT2OPvFTo53EVQrfw+RsRnxncdISPHfebNMjvdki/i9MM+Py8lTI6qA7QWbFEC0L+4hz9Zu7iC71AF4h6nLaSeQ5F7n0acCKIN1gPhjT4I7D0lKNTtrpom7yuoXwM5BvgJIGdwBpN2toUlKr1ho31R4KADv0M/epAtQeHl3FfA7d96vq8h3ATKmvKuFIWVM27dCJPOQOJBamLh0sq6XpCxU8SipXjXUOhc2iTpAaF+bmNVsrpsVgHcoeqbhoea9JPimAMqbVg5Fag9znAaJOrglTIop6bzeGwDlTXOFQvttKqftCA3pxpzaTrWFXkpHRzjjwHVzB2g7ApcInApLfHAApXKbCochUe1/huaZZqjnTNOw6wBqMo1aiANoaUS15abhYWZ1ZBtASyM0yjYm+M47xd03LgY575zhDtRKuWWy8NAIGMHN3ABCcfQO0LQifA9I33aH2J5zA6gqz9wBguh6D0jxDiRXZi37bQB4jRG6rm8agPoKZ6MM1ZY+leg2FoB64Eu7iYmKECN0n1VW/LumQQ4gGhqrFjeNWM7w5BCzA7D51EJPEveG9eudvAEUcAJO2OKQSGLq4eDnTUPcLmhlBeBDZyVYu2xNSyNpz+puG6Tyazj9uRsTGaBsJmOG7OxIZLLdDUA15xnYTOIhjXCHhIVFB1hoEKVObAeIm9lNrnS2s4fe4cVD6upbbxp1NzsqCiAhbpOdAKCUfXOX0M5MYbeFU6E3Ddaxu2B3cNMdYot+xxR/+wiZh4YJx97yAjB0lbEtxAGkM8fGk7s2/ay6hlUUEx0gqoNdRy1eAbIAWP/x7SLxwQq3haQwD4V3XDjsZxmVbFvauWV8rD62SVlCMdGCNmP84QELH1pwAO0H35CSDtTFDz3fOdJD1MEBwr3rxDhtU6NonXx2eyiVroPvMFR1cADpmxb0/ptzWA4oRQHYyRj6DOvN+faui69yG60F9aca6v0W6i4OwMNGQS5yAGkCFkpB+zgfvaWgLzmAzn+76xX1pxaMcbEFtXLDtDVNmiprZHZ95uACZFSw9hGmpoCbIenEZaShjwB1ARJ/zyBQ6cofyNmtwEMBVBWxoPPtLwMwQORTB1AT0wYUBZDIbJewcgEmdpRuQFEANhs3LSAX1vksHEYp3OplQQ29OcAcm77LwBOuFkrUDkC/ZGct4A0AvYapI3t8PuoloCiAzpbsQ4lTARjYTbdoaai3WhCZHUCS1waEk/CkJO72/qGAm2cQ7+0A7BK3sEVZtjMLW9T4TIOFHce6hlnYcYZdsRYy9lL5IIdpBNrfUyEnEKoDhTthHKA7rmLCEU9+7GPU9NBVM8X93RN66KrKeuFeGwvfs9rftWCABQB+DSh085SMX0qwGhbflYK8AujiS2eR5CWgKODmGdTdJ3aVoefp8UGTV4AZAHj+u4Tvby7sf7aQi2Y+sR9PQmWullkJX/hcUtbxHx4fFP3x088/f/ke6dv/6wdI/U9fPl5a//xf);fillColor=none;dashed=1;rounded=1;" vertex="1" parent="rtHGFJQZ5BcF_f9TNZza-244">
          <mxGeometry y="12.148148148148152" width="32.47685185185185" height="31.099537037037035" as="geometry" />
        </mxCell>
        <mxCell id="rtHGFJQZ5BcF_f9TNZza-255" value="Output&lt;br&gt;sequence" style="text;html=1;strokeColor=none;fillColor=none;align=center;verticalAlign=middle;whiteSpace=wrap;rounded=1;dashed=1;" vertex="1" parent="1">
          <mxGeometry x="707.5" y="436.25" width="60" height="30" as="geometry" />
        </mxCell>
        <mxCell id="rtHGFJQZ5BcF_f9TNZza-256" value="" style="group;rounded=1;" vertex="1" connectable="0" parent="1">
          <mxGeometry x="402.5" y="412.5" width="174" height="77.5" as="geometry" />
        </mxCell>
        <mxCell id="rtHGFJQZ5BcF_f9TNZza-257" value="" style="group;rounded=1;" vertex="1" connectable="0" parent="rtHGFJQZ5BcF_f9TNZza-256">
          <mxGeometry x="100" width="74" height="77.5" as="geometry" />
        </mxCell>
        <mxCell id="rtHGFJQZ5BcF_f9TNZza-258" value="Decoder" style="rounded=1;whiteSpace=wrap;html=1;verticalAlign=top;" vertex="1" parent="rtHGFJQZ5BcF_f9TNZza-257">
          <mxGeometry width="74" height="77.5" as="geometry" />
        </mxCell>
        <mxCell id="rtHGFJQZ5BcF_f9TNZza-259" value="" style="group;rounded=1;" vertex="1" connectable="0" parent="rtHGFJQZ5BcF_f9TNZza-257">
          <mxGeometry x="17" y="27.5" width="37.78" height="40" as="geometry" />
        </mxCell>
        <mxCell id="rtHGFJQZ5BcF_f9TNZza-260" value="" style="ellipse;whiteSpace=wrap;html=1;aspect=fixed;rounded=1;" vertex="1" parent="rtHGFJQZ5BcF_f9TNZza-259">
          <mxGeometry x="16.66764705882353" y="15.555555555555555" width="8.88864283649203" height="8.88864283649203" as="geometry" />
        </mxCell>
        <mxCell id="rtHGFJQZ5BcF_f9TNZza-261" value="" style="ellipse;whiteSpace=wrap;html=1;aspect=fixed;rounded=1;" vertex="1" parent="rtHGFJQZ5BcF_f9TNZza-259">
          <mxGeometry y="15.555555555555555" width="8.88864283649203" height="8.88864283649203" as="geometry" />
        </mxCell>
        <mxCell id="rtHGFJQZ5BcF_f9TNZza-262" value="" style="edgeStyle=none;rounded=1;orthogonalLoop=1;jettySize=auto;html=1;endArrow=none;endFill=0;" edge="1" parent="rtHGFJQZ5BcF_f9TNZza-259" source="rtHGFJQZ5BcF_f9TNZza-260" target="rtHGFJQZ5BcF_f9TNZza-261">
          <mxGeometry relative="1" as="geometry" />
        </mxCell>
        <mxCell id="rtHGFJQZ5BcF_f9TNZza-263" style="rounded=1;orthogonalLoop=1;jettySize=auto;html=1;exitX=1;exitY=0.5;exitDx=0;exitDy=0;endArrow=none;endFill=0;" edge="1" parent="rtHGFJQZ5BcF_f9TNZza-259" source="rtHGFJQZ5BcF_f9TNZza-261">
          <mxGeometry relative="1" as="geometry">
            <mxPoint x="15.556470588235298" y="20" as="targetPoint" />
          </mxGeometry>
        </mxCell>
        <mxCell id="rtHGFJQZ5BcF_f9TNZza-264" value="" style="ellipse;whiteSpace=wrap;html=1;aspect=fixed;rounded=1;" vertex="1" parent="rtHGFJQZ5BcF_f9TNZza-259">
          <mxGeometry x="28.890588235294118" y="3.333333333333333" width="8.88864283649203" height="8.88864283649203" as="geometry" />
        </mxCell>
        <mxCell id="rtHGFJQZ5BcF_f9TNZza-265" style="edgeStyle=none;rounded=1;orthogonalLoop=1;jettySize=auto;html=1;exitX=1;exitY=0;exitDx=0;exitDy=0;entryX=0;entryY=1;entryDx=0;entryDy=0;endArrow=none;endFill=0;" edge="1" parent="rtHGFJQZ5BcF_f9TNZza-259" source="rtHGFJQZ5BcF_f9TNZza-260" target="rtHGFJQZ5BcF_f9TNZza-264">
          <mxGeometry relative="1" as="geometry" />
        </mxCell>
        <mxCell id="rtHGFJQZ5BcF_f9TNZza-266" style="edgeStyle=none;rounded=1;orthogonalLoop=1;jettySize=auto;html=1;exitX=0.5;exitY=0;exitDx=0;exitDy=0;entryX=0.5;entryY=1;entryDx=0;entryDy=0;endArrow=none;endFill=0;" edge="1" parent="rtHGFJQZ5BcF_f9TNZza-259" source="rtHGFJQZ5BcF_f9TNZza-267" target="rtHGFJQZ5BcF_f9TNZza-260">
          <mxGeometry relative="1" as="geometry" />
        </mxCell>
        <mxCell id="rtHGFJQZ5BcF_f9TNZza-267" value="" style="ellipse;whiteSpace=wrap;html=1;aspect=fixed;rounded=1;" vertex="1" parent="rtHGFJQZ5BcF_f9TNZza-259">
          <mxGeometry x="17.778823529411763" y="31.11111111111111" width="8.88864283649203" height="8.88864283649203" as="geometry" />
        </mxCell>
        <mxCell id="rtHGFJQZ5BcF_f9TNZza-268" style="edgeStyle=none;rounded=1;orthogonalLoop=1;jettySize=auto;html=1;entryX=0;entryY=0.5;entryDx=0;entryDy=0;endArrow=none;endFill=0;" edge="1" parent="rtHGFJQZ5BcF_f9TNZza-259" source="rtHGFJQZ5BcF_f9TNZza-260" target="rtHGFJQZ5BcF_f9TNZza-260">
          <mxGeometry relative="1" as="geometry" />
        </mxCell>
        <mxCell id="rtHGFJQZ5BcF_f9TNZza-269" value="" style="ellipse;whiteSpace=wrap;html=1;aspect=fixed;rounded=1;" vertex="1" parent="rtHGFJQZ5BcF_f9TNZza-259">
          <mxGeometry x="28.890588235294118" y="3.333333333333333" width="8.88864283649203" height="8.88864283649203" as="geometry" />
        </mxCell>
        <mxCell id="rtHGFJQZ5BcF_f9TNZza-270" value="" style="ellipse;whiteSpace=wrap;html=1;aspect=fixed;rounded=1;" vertex="1" parent="rtHGFJQZ5BcF_f9TNZza-259">
          <mxGeometry y="15.555555555555555" width="8.88864283649203" height="8.88864283649203" as="geometry" />
        </mxCell>
        <mxCell id="rtHGFJQZ5BcF_f9TNZza-271" value="" style="group;rounded=1;" vertex="1" connectable="0" parent="rtHGFJQZ5BcF_f9TNZza-256">
          <mxGeometry width="74" height="77.5" as="geometry" />
        </mxCell>
        <mxCell id="rtHGFJQZ5BcF_f9TNZza-272" value="Encoder" style="rounded=1;whiteSpace=wrap;html=1;verticalAlign=top;" vertex="1" parent="rtHGFJQZ5BcF_f9TNZza-271">
          <mxGeometry width="74" height="77.5" as="geometry" />
        </mxCell>
        <mxCell id="rtHGFJQZ5BcF_f9TNZza-273" value="" style="group;rounded=1;" vertex="1" connectable="0" parent="rtHGFJQZ5BcF_f9TNZza-271">
          <mxGeometry x="17.110000000000014" y="27.5" width="37.78" height="40" as="geometry" />
        </mxCell>
        <mxCell id="rtHGFJQZ5BcF_f9TNZza-274" value="" style="ellipse;whiteSpace=wrap;html=1;aspect=fixed;rounded=1;" vertex="1" parent="rtHGFJQZ5BcF_f9TNZza-273">
          <mxGeometry x="16.66764705882353" y="15.555555555555555" width="8.88864283649203" height="8.88864283649203" as="geometry" />
        </mxCell>
        <mxCell id="rtHGFJQZ5BcF_f9TNZza-275" value="" style="ellipse;whiteSpace=wrap;html=1;aspect=fixed;rounded=1;" vertex="1" parent="rtHGFJQZ5BcF_f9TNZza-273">
          <mxGeometry y="15.555555555555555" width="8.88864283649203" height="8.88864283649203" as="geometry" />
        </mxCell>
        <mxCell id="rtHGFJQZ5BcF_f9TNZza-276" value="" style="edgeStyle=none;rounded=1;orthogonalLoop=1;jettySize=auto;html=1;endArrow=none;endFill=0;" edge="1" parent="rtHGFJQZ5BcF_f9TNZza-273" source="rtHGFJQZ5BcF_f9TNZza-274" target="rtHGFJQZ5BcF_f9TNZza-275">
          <mxGeometry relative="1" as="geometry" />
        </mxCell>
        <mxCell id="rtHGFJQZ5BcF_f9TNZza-277" style="rounded=1;orthogonalLoop=1;jettySize=auto;html=1;exitX=1;exitY=0.5;exitDx=0;exitDy=0;endArrow=none;endFill=0;" edge="1" parent="rtHGFJQZ5BcF_f9TNZza-273" source="rtHGFJQZ5BcF_f9TNZza-275">
          <mxGeometry relative="1" as="geometry">
            <mxPoint x="15.556470588235298" y="20" as="targetPoint" />
          </mxGeometry>
        </mxCell>
        <mxCell id="rtHGFJQZ5BcF_f9TNZza-278" value="" style="ellipse;whiteSpace=wrap;html=1;aspect=fixed;rounded=1;" vertex="1" parent="rtHGFJQZ5BcF_f9TNZza-273">
          <mxGeometry x="28.890588235294118" y="3.333333333333333" width="8.88864283649203" height="8.88864283649203" as="geometry" />
        </mxCell>
        <mxCell id="rtHGFJQZ5BcF_f9TNZza-279" style="edgeStyle=none;rounded=1;orthogonalLoop=1;jettySize=auto;html=1;exitX=1;exitY=0;exitDx=0;exitDy=0;entryX=0;entryY=1;entryDx=0;entryDy=0;endArrow=none;endFill=0;" edge="1" parent="rtHGFJQZ5BcF_f9TNZza-273" source="rtHGFJQZ5BcF_f9TNZza-274" target="rtHGFJQZ5BcF_f9TNZza-278">
          <mxGeometry relative="1" as="geometry" />
        </mxCell>
        <mxCell id="rtHGFJQZ5BcF_f9TNZza-280" style="edgeStyle=none;rounded=1;orthogonalLoop=1;jettySize=auto;html=1;exitX=0.5;exitY=0;exitDx=0;exitDy=0;entryX=0.5;entryY=1;entryDx=0;entryDy=0;endArrow=none;endFill=0;" edge="1" parent="rtHGFJQZ5BcF_f9TNZza-273" source="rtHGFJQZ5BcF_f9TNZza-281" target="rtHGFJQZ5BcF_f9TNZza-274">
          <mxGeometry relative="1" as="geometry" />
        </mxCell>
        <mxCell id="rtHGFJQZ5BcF_f9TNZza-281" value="" style="ellipse;whiteSpace=wrap;html=1;aspect=fixed;rounded=1;" vertex="1" parent="rtHGFJQZ5BcF_f9TNZza-273">
          <mxGeometry x="17.778823529411763" y="31.11111111111111" width="8.88864283649203" height="8.88864283649203" as="geometry" />
        </mxCell>
        <mxCell id="rtHGFJQZ5BcF_f9TNZza-282" style="edgeStyle=none;rounded=1;orthogonalLoop=1;jettySize=auto;html=1;entryX=0;entryY=0.5;entryDx=0;entryDy=0;endArrow=none;endFill=0;" edge="1" parent="rtHGFJQZ5BcF_f9TNZza-273" source="rtHGFJQZ5BcF_f9TNZza-274" target="rtHGFJQZ5BcF_f9TNZza-274">
          <mxGeometry relative="1" as="geometry" />
        </mxCell>
        <mxCell id="rtHGFJQZ5BcF_f9TNZza-283" value="" style="ellipse;whiteSpace=wrap;html=1;aspect=fixed;rounded=1;" vertex="1" parent="rtHGFJQZ5BcF_f9TNZza-273">
          <mxGeometry x="28.890588235294118" y="3.333333333333333" width="8.88864283649203" height="8.88864283649203" as="geometry" />
        </mxCell>
        <mxCell id="rtHGFJQZ5BcF_f9TNZza-284" value="" style="ellipse;whiteSpace=wrap;html=1;aspect=fixed;rounded=1;" vertex="1" parent="rtHGFJQZ5BcF_f9TNZza-273">
          <mxGeometry y="15.555555555555555" width="8.88864283649203" height="8.88864283649203" as="geometry" />
        </mxCell>
        <mxCell id="rtHGFJQZ5BcF_f9TNZza-285" style="edgeStyle=orthogonalEdgeStyle;rounded=1;orthogonalLoop=1;jettySize=auto;html=1;exitX=1;exitY=0.5;exitDx=0;exitDy=0;entryX=0;entryY=0.5;entryDx=0;entryDy=0;endArrow=block;endFill=1;" edge="1" parent="rtHGFJQZ5BcF_f9TNZza-256" source="rtHGFJQZ5BcF_f9TNZza-272" target="rtHGFJQZ5BcF_f9TNZza-258">
          <mxGeometry relative="1" as="geometry" />
        </mxCell>
        <mxCell id="rtHGFJQZ5BcF_f9TNZza-286" value="" style="group;rounded=1;" vertex="1" connectable="0" parent="1">
          <mxGeometry x="80" y="280" width="64" height="85" as="geometry" />
        </mxCell>
        <mxCell id="rtHGFJQZ5BcF_f9TNZza-287" value="" style="group;rounded=1;" vertex="1" connectable="0" parent="rtHGFJQZ5BcF_f9TNZza-286">
          <mxGeometry x="44" width="50" height="60" as="geometry" />
        </mxCell>
        <mxCell id="rtHGFJQZ5BcF_f9TNZza-298" value="" style="shape=crossbar;whiteSpace=wrap;html=1;rounded=1;rotation=90;" vertex="1" parent="rtHGFJQZ5BcF_f9TNZza-286">
          <mxGeometry x="22" y="20" width="40" height="10" as="geometry" />
        </mxCell>
        <mxCell id="rtHGFJQZ5BcF_f9TNZza-299" value="$$N$$" style="text;html=1;align=center;verticalAlign=middle;resizable=0;points=[];autosize=1;strokeColor=none;fillColor=none;rounded=1;" vertex="1" parent="rtHGFJQZ5BcF_f9TNZza-286">
          <mxGeometry y="15" width="50" height="20" as="geometry" />
        </mxCell>
        <mxCell id="rtHGFJQZ5BcF_f9TNZza-300" value="" style="shape=crossbar;whiteSpace=wrap;html=1;rounded=1;" vertex="1" parent="1">
          <mxGeometry x="134" y="270" width="30" height="10" as="geometry" />
        </mxCell>
        <mxCell id="rtHGFJQZ5BcF_f9TNZza-301" value="$$S$$" style="text;html=1;align=center;verticalAlign=middle;resizable=0;points=[];autosize=1;strokeColor=none;fillColor=none;rounded=1;" vertex="1" parent="1">
          <mxGeometry x="124" y="250" width="50" height="20" as="geometry" />
        </mxCell>
        <mxCell id="rtHGFJQZ5BcF_f9TNZza-302" value="Input&lt;br&gt;sequence" style="text;html=1;strokeColor=none;fillColor=none;align=center;verticalAlign=middle;whiteSpace=wrap;rounded=1;dashed=1;" vertex="1" parent="1">
          <mxGeometry x="119" y="332" width="60" height="30" as="geometry" />
        </mxCell>
        <mxCell id="rtHGFJQZ5BcF_f9TNZza-303" value="" style="whiteSpace=wrap;html=1;aspect=fixed;fillColor=#FFCCCC;rounded=1;" vertex="1" parent="1">
          <mxGeometry x="134" y="285" width="10" height="10" as="geometry" />
        </mxCell>
        <mxCell id="rtHGFJQZ5BcF_f9TNZza-304" value="" style="whiteSpace=wrap;html=1;aspect=fixed;fillColor=#FF6666;rounded=1;" vertex="1" parent="1">
          <mxGeometry x="134" y="295" width="10" height="10" as="geometry" />
        </mxCell>
        <mxCell id="rtHGFJQZ5BcF_f9TNZza-305" value="" style="whiteSpace=wrap;html=1;aspect=fixed;fillColor=#FF0000;rounded=1;" vertex="1" parent="1">
          <mxGeometry x="134" y="305" width="10" height="10" as="geometry" />
        </mxCell>
        <mxCell id="rtHGFJQZ5BcF_f9TNZza-306" value="" style="whiteSpace=wrap;html=1;aspect=fixed;fillColor=#990000;rounded=1;" vertex="1" parent="1">
          <mxGeometry x="134" y="315" width="10" height="10" as="geometry" />
        </mxCell>
        <mxCell id="rtHGFJQZ5BcF_f9TNZza-307" value="" style="whiteSpace=wrap;html=1;aspect=fixed;fillColor=#FFFFCC;rounded=1;" vertex="1" parent="1">
          <mxGeometry x="154" y="285" width="10" height="10" as="geometry" />
        </mxCell>
        <mxCell id="rtHGFJQZ5BcF_f9TNZza-308" value="" style="whiteSpace=wrap;html=1;aspect=fixed;fillColor=#FFFF66;rounded=1;" vertex="1" parent="1">
          <mxGeometry x="154" y="295" width="10" height="10" as="geometry" />
        </mxCell>
        <mxCell id="rtHGFJQZ5BcF_f9TNZza-309" value="" style="whiteSpace=wrap;html=1;aspect=fixed;fillColor=#FFFF00;rounded=1;" vertex="1" parent="1">
          <mxGeometry x="154" y="305" width="10" height="10" as="geometry" />
        </mxCell>
        <mxCell id="rtHGFJQZ5BcF_f9TNZza-310" value="" style="whiteSpace=wrap;html=1;aspect=fixed;fillColor=#999900;rounded=1;" vertex="1" parent="1">
          <mxGeometry x="154" y="315" width="10" height="10" as="geometry" />
        </mxCell>
        <mxCell id="rtHGFJQZ5BcF_f9TNZza-311" value="" style="whiteSpace=wrap;html=1;aspect=fixed;fillColor=#FF3333;rounded=1;" vertex="1" parent="1">
          <mxGeometry x="368" y="305" width="10" height="10" as="geometry" />
        </mxCell>
        <mxCell id="rtHGFJQZ5BcF_f9TNZza-312" value="" style="whiteSpace=wrap;html=1;aspect=fixed;fillColor=#FFFF33;rounded=1;" vertex="1" parent="1">
          <mxGeometry x="388" y="305" width="10" height="10" as="geometry" />
        </mxCell>
        <mxCell id="rtHGFJQZ5BcF_f9TNZza-313" value="" style="whiteSpace=wrap;html=1;aspect=fixed;fillColor=#FF9999;rounded=1;" vertex="1" parent="1">
          <mxGeometry x="368" y="295" width="10" height="10" as="geometry" />
        </mxCell>
        <mxCell id="rtHGFJQZ5BcF_f9TNZza-314" value="" style="whiteSpace=wrap;html=1;aspect=fixed;fillColor=#FFFF99;rounded=1;" vertex="1" parent="1">
          <mxGeometry x="388" y="295" width="10" height="10" as="geometry" />
        </mxCell>
        <mxCell id="rtHGFJQZ5BcF_f9TNZza-315" value="" style="group;rounded=1;" vertex="1" connectable="0" parent="1">
          <mxGeometry x="669" y="295" width="50" height="20" as="geometry" />
        </mxCell>
        <mxCell id="rtHGFJQZ5BcF_f9TNZza-316" value="" style="whiteSpace=wrap;html=1;aspect=fixed;fillColor=#33FF33;rounded=1;" vertex="1" parent="rtHGFJQZ5BcF_f9TNZza-315">
          <mxGeometry y="10" width="10" height="10" as="geometry" />
        </mxCell>
        <mxCell id="rtHGFJQZ5BcF_f9TNZza-317" value="" style="whiteSpace=wrap;html=1;aspect=fixed;fillColor=#CCFFCC;rounded=1;" vertex="1" parent="rtHGFJQZ5BcF_f9TNZza-315">
          <mxGeometry width="10" height="10" as="geometry" />
        </mxCell>
        <mxCell id="rtHGFJQZ5BcF_f9TNZza-318" value="" style="whiteSpace=wrap;html=1;aspect=fixed;fillColor=#FFFF33;rounded=1;" vertex="1" parent="rtHGFJQZ5BcF_f9TNZza-315">
          <mxGeometry x="20" y="10" width="10" height="10" as="geometry" />
        </mxCell>
        <mxCell id="rtHGFJQZ5BcF_f9TNZza-319" value="" style="whiteSpace=wrap;html=1;aspect=fixed;fillColor=#FFFF99;rounded=1;" vertex="1" parent="rtHGFJQZ5BcF_f9TNZza-315">
          <mxGeometry x="20" width="10" height="10" as="geometry" />
        </mxCell>
        <mxCell id="rtHGFJQZ5BcF_f9TNZza-320" value="" style="whiteSpace=wrap;html=1;aspect=fixed;fillColor=#FF3333;rounded=1;" vertex="1" parent="rtHGFJQZ5BcF_f9TNZza-315">
          <mxGeometry x="40" y="10" width="10" height="10" as="geometry" />
        </mxCell>
        <mxCell id="rtHGFJQZ5BcF_f9TNZza-321" value="" style="whiteSpace=wrap;html=1;aspect=fixed;fillColor=#FF9999;rounded=1;" vertex="1" parent="rtHGFJQZ5BcF_f9TNZza-315">
          <mxGeometry x="40" width="10" height="10" as="geometry" />
        </mxCell>
        <mxCell id="rtHGFJQZ5BcF_f9TNZza-322" value="" style="whiteSpace=wrap;html=1;aspect=fixed;fillColor=#CCFFCC;rounded=1;" vertex="1" parent="1">
          <mxGeometry x="894" y="285" width="10" height="10" as="geometry" />
        </mxCell>
        <mxCell id="rtHGFJQZ5BcF_f9TNZza-323" value="" style="whiteSpace=wrap;html=1;aspect=fixed;fillColor=#CCFFCC;rounded=1;" vertex="1" parent="1">
          <mxGeometry x="894" y="295" width="10" height="10" as="geometry" />
        </mxCell>
        <mxCell id="rtHGFJQZ5BcF_f9TNZza-324" value="" style="whiteSpace=wrap;html=1;aspect=fixed;fillColor=#00FF00;rounded=1;" vertex="1" parent="1">
          <mxGeometry x="894" y="305" width="10" height="10" as="geometry" />
        </mxCell>
        <mxCell id="rtHGFJQZ5BcF_f9TNZza-325" value="" style="whiteSpace=wrap;html=1;aspect=fixed;fillColor=#00FF00;rounded=1;" vertex="1" parent="1">
          <mxGeometry x="894" y="315" width="10" height="10" as="geometry" />
        </mxCell>
        <mxCell id="rtHGFJQZ5BcF_f9TNZza-326" value="" style="whiteSpace=wrap;html=1;aspect=fixed;fillColor=#FFFFCC;rounded=1;" vertex="1" parent="1">
          <mxGeometry x="914" y="285" width="10" height="10" as="geometry" />
        </mxCell>
        <mxCell id="rtHGFJQZ5BcF_f9TNZza-327" value="" style="whiteSpace=wrap;html=1;aspect=fixed;fillColor=#FFFFCC;rounded=1;" vertex="1" parent="1">
          <mxGeometry x="914" y="295" width="10" height="10" as="geometry" />
        </mxCell>
        <mxCell id="rtHGFJQZ5BcF_f9TNZza-328" value="" style="whiteSpace=wrap;html=1;aspect=fixed;fillColor=#FFFF00;rounded=1;" vertex="1" parent="1">
          <mxGeometry x="914" y="305" width="10" height="10" as="geometry" />
        </mxCell>
        <mxCell id="rtHGFJQZ5BcF_f9TNZza-329" value="" style="whiteSpace=wrap;html=1;aspect=fixed;fillColor=#FFFF00;rounded=1;" vertex="1" parent="1">
          <mxGeometry x="914" y="315" width="10" height="10" as="geometry" />
        </mxCell>
        <mxCell id="rtHGFJQZ5BcF_f9TNZza-330" value="" style="whiteSpace=wrap;html=1;aspect=fixed;fillColor=#FFCCCC;rounded=1;" vertex="1" parent="1">
          <mxGeometry x="934" y="285" width="10" height="10" as="geometry" />
        </mxCell>
        <mxCell id="rtHGFJQZ5BcF_f9TNZza-331" value="" style="whiteSpace=wrap;html=1;aspect=fixed;fillColor=#FFCCCC;rounded=1;" vertex="1" parent="1">
          <mxGeometry x="934" y="295" width="10" height="10" as="geometry" />
        </mxCell>
        <mxCell id="rtHGFJQZ5BcF_f9TNZza-332" value="" style="whiteSpace=wrap;html=1;aspect=fixed;fillColor=#FF0000;rounded=1;" vertex="1" parent="1">
          <mxGeometry x="934" y="305" width="10" height="10" as="geometry" />
        </mxCell>
        <mxCell id="rtHGFJQZ5BcF_f9TNZza-333" value="" style="whiteSpace=wrap;html=1;aspect=fixed;fillColor=#FF0000;rounded=1;" vertex="1" parent="1">
          <mxGeometry x="934" y="315" width="10" height="10" as="geometry" />
        </mxCell>
        <mxCell id="rtHGFJQZ5BcF_f9TNZza-334" value="" style="whiteSpace=wrap;html=1;aspect=fixed;fillColor=#CCFFCC;rounded=1;strokeColor=#FFFFFF;" vertex="1" parent="1">
          <mxGeometry x="647.5" y="431" width="10" height="10" as="geometry" />
        </mxCell>
        <mxCell id="rtHGFJQZ5BcF_f9TNZza-335" value="" style="whiteSpace=wrap;html=1;aspect=fixed;fillColor=#E6FFCC;rounded=1;strokeColor=#FFFFFF;" vertex="1" parent="1">
          <mxGeometry x="647.5" y="441" width="10" height="10" as="geometry" />
        </mxCell>
        <mxCell id="rtHGFJQZ5BcF_f9TNZza-336" value="" style="whiteSpace=wrap;html=1;aspect=fixed;fillColor=#00FF00;rounded=1;strokeColor=#FFFFFF;" vertex="1" parent="1">
          <mxGeometry x="647.5" y="451" width="10" height="10" as="geometry" />
        </mxCell>
        <mxCell id="rtHGFJQZ5BcF_f9TNZza-337" value="" style="whiteSpace=wrap;html=1;aspect=fixed;fillColor=#80FF00;rounded=1;strokeColor=#FFFFFF;" vertex="1" parent="1">
          <mxGeometry x="647.5" y="461" width="10" height="10" as="geometry" />
        </mxCell>
        <mxCell id="rtHGFJQZ5BcF_f9TNZza-338" value="" style="whiteSpace=wrap;html=1;aspect=fixed;fillColor=#FFFFCC;rounded=1;strokeColor=#FFFFFF;" vertex="1" parent="1">
          <mxGeometry x="667.5" y="431" width="10" height="10" as="geometry" />
        </mxCell>
        <mxCell id="rtHGFJQZ5BcF_f9TNZza-339" value="" style="whiteSpace=wrap;html=1;aspect=fixed;fillColor=#FFB366;rounded=1;strokeColor=#FFFFFF;" vertex="1" parent="1">
          <mxGeometry x="667.5" y="441" width="10" height="10" as="geometry" />
        </mxCell>
        <mxCell id="rtHGFJQZ5BcF_f9TNZza-340" value="" style="whiteSpace=wrap;html=1;aspect=fixed;fillColor=#FFFF00;rounded=1;strokeColor=#FFFFFF;" vertex="1" parent="1">
          <mxGeometry x="667.5" y="451" width="10" height="10" as="geometry" />
        </mxCell>
        <mxCell id="rtHGFJQZ5BcF_f9TNZza-341" value="" style="whiteSpace=wrap;html=1;aspect=fixed;fillColor=#CCCC00;rounded=1;strokeColor=#FFFFFF;" vertex="1" parent="1">
          <mxGeometry x="667.5" y="461" width="10" height="10" as="geometry" />
        </mxCell>
        <mxCell id="rtHGFJQZ5BcF_f9TNZza-342" value="" style="whiteSpace=wrap;html=1;aspect=fixed;fillColor=#FFCCCC;rounded=1;strokeColor=#FFFFFF;" vertex="1" parent="1">
          <mxGeometry x="687.5" y="431" width="10" height="10" as="geometry" />
        </mxCell>
        <mxCell id="rtHGFJQZ5BcF_f9TNZza-343" value="" style="whiteSpace=wrap;html=1;aspect=fixed;fillColor=#FF9999;rounded=1;strokeColor=#FFFFFF;" vertex="1" parent="1">
          <mxGeometry x="687.5" y="441" width="10" height="10" as="geometry" />
        </mxCell>
        <mxCell id="rtHGFJQZ5BcF_f9TNZza-344" value="" style="whiteSpace=wrap;html=1;aspect=fixed;fillColor=#FF0000;rounded=1;strokeColor=#FFFFFF;" vertex="1" parent="1">
          <mxGeometry x="687.5" y="451" width="10" height="10" as="geometry" />
        </mxCell>
        <mxCell id="rtHGFJQZ5BcF_f9TNZza-345" value="" style="whiteSpace=wrap;html=1;aspect=fixed;fillColor=#CC6600;rounded=1;strokeColor=#FFFFFF;" vertex="1" parent="1">
          <mxGeometry x="687.5" y="461" width="10" height="10" as="geometry" />
        </mxCell>
        <mxCell id="rtHGFJQZ5BcF_f9TNZza-233" value="" style="group;rounded=1;" vertex="1" connectable="0" parent="1">
          <mxGeometry x="265.84000000000003" y="293.75" width="37.78" height="40" as="geometry" />
        </mxCell>
        <mxCell id="rtHGFJQZ5BcF_f9TNZza-234" value="" style="ellipse;whiteSpace=wrap;html=1;aspect=fixed;rounded=1;" vertex="1" parent="rtHGFJQZ5BcF_f9TNZza-233">
          <mxGeometry x="16.66764705882353" y="15.555555555555555" width="8.88864283649203" height="8.88864283649203" as="geometry" />
        </mxCell>
        <mxCell id="rtHGFJQZ5BcF_f9TNZza-235" value="" style="ellipse;whiteSpace=wrap;html=1;aspect=fixed;rounded=1;fillColor=#0000FF;" vertex="1" parent="rtHGFJQZ5BcF_f9TNZza-233">
          <mxGeometry y="15.555555555555555" width="8.88864283649203" height="8.88864283649203" as="geometry" />
        </mxCell>
        <mxCell id="rtHGFJQZ5BcF_f9TNZza-236" value="" style="ellipse;whiteSpace=wrap;html=1;aspect=fixed;rounded=1;" vertex="1" parent="rtHGFJQZ5BcF_f9TNZza-233">
          <mxGeometry x="28.890588235294118" y="3.333333333333333" width="8.88864283649203" height="8.88864283649203" as="geometry" />
        </mxCell>
        <mxCell id="rtHGFJQZ5BcF_f9TNZza-237" value="" style="ellipse;whiteSpace=wrap;html=1;aspect=fixed;rounded=1;fillColor=#0000FF;" vertex="1" parent="rtHGFJQZ5BcF_f9TNZza-233">
          <mxGeometry x="17.778823529411763" y="31.11111111111111" width="8.88864283649203" height="8.88864283649203" as="geometry" />
        </mxCell>
        <mxCell id="rtHGFJQZ5BcF_f9TNZza-238" style="edgeStyle=none;rounded=1;orthogonalLoop=1;jettySize=auto;html=1;entryX=0;entryY=0.5;entryDx=0;entryDy=0;endArrow=none;endFill=0;" edge="1" parent="rtHGFJQZ5BcF_f9TNZza-233" source="rtHGFJQZ5BcF_f9TNZza-234" target="rtHGFJQZ5BcF_f9TNZza-234">
          <mxGeometry relative="1" as="geometry" />
        </mxCell>
        <mxCell id="rtHGFJQZ5BcF_f9TNZza-239" value="" style="ellipse;whiteSpace=wrap;html=1;aspect=fixed;rounded=1;" vertex="1" parent="rtHGFJQZ5BcF_f9TNZza-233">
          <mxGeometry x="28.890588235294118" y="3.333333333333333" width="8.88864283649203" height="8.88864283649203" as="geometry" />
        </mxCell>
        <mxCell id="rtHGFJQZ5BcF_f9TNZza-240" value="" style="ellipse;whiteSpace=wrap;html=1;aspect=fixed;rounded=1;fillColor=#0000FF;" vertex="1" parent="rtHGFJQZ5BcF_f9TNZza-233">
          <mxGeometry y="15.555555555555555" width="8.88864283649203" height="8.88864283649203" as="geometry" />
        </mxCell>
        <mxCell id="rtHGFJQZ5BcF_f9TNZza-241" value="" style="shape=stencil(lZzZ0hvHDYWf5r+d6n25dpz3cJXlSBVFcslylrcPOkoPyYPhR+lO+okz7OkFODhA8y3/9Mf7X35/95bCH1+/fP77u399+PXr+7f8l7eUPnx6/+7Lh6/2r7f881v+6bfPX9797cvnPz/9+u3/v/+yLNe//vH5n+sJ//6Gi+noaaFS+M+3v9Rw5P6/v/z1G+Djh0+PgP9/fAfoGQDxaO0REI8aAGDPq4+AdNSCgFweAfkI6TlgHi2r/YQRjWPKHJVjwPPHkeSN69Hnc/t+VHnhdoxK9jE+2vejwfjb0cV+7Bl7Yp9l/PMI+PwY1L7B/NRjPM5/C0eE+alH7Wrf8fn5cTwtHimSfUxq32A8Ze+W0z4dcZB9G2rfYT7LUWQ8+Uj4fNkPZj9g/PapjL8cFeYnH2U+2tuMgY/Iezbu7AfY22yIfTsquJR0FNk/diLgvCS3vh33TzzG4/5vdqLh+VH9idl3WK94FHn+PDLMf9yrf2dP/iTqeewB90/c3vLOfsB47NPH8fS4d+wTe3HoPR0BxhM0Ypg9vW/Yu+W0z0fF5xeZn4IxL+zVOe0r+hObbZnPdgTYP+b9stoPHH94PI+97x34zP4xPnbz//x8mZ+5R/jd9rxeYj9sRXA+vf3k8T++74jo39x8Dtuf+L7i38y+4fNl/wzzkBB/g/pbs6d46s7LKEdoP3B+zR4Z2faud/aTCJlSxFFxvzn/afbEr6LG39E243ri/1NU+47xoj6e39GPhPFrdLUfMJ95P+205/Noq+/sJ4zf8YEx9xs9sRf+OQP6K1v9qfbkb231xT7i/qw6n5MzBsdXzX6C/2mbHZ32J6N4wrclXpv9hPM+1J9PY1BwXoaeR7OfsN+m7of54vza8sgL1CNQkmfxfCig0Yk/M7QT0DBERtvTVQHIaYqSiNmZNNXNYe4AdOpjUxo6B9LKaM9rCsB1GDtTvgMQ0Ypzx5UTMJE5pTOQ3gGIui7f3hRAZ8GTYwNUcr7p4h0ou1rphgNQODB/lIIC6HwuB+beYdI7VM2gYwiYEpuPEZ/xEtEvVgLfojs3+WKehvIKA3Q41eZoJPCvpaN3sOe5IRXKFIOmcgbIFDrjZk7feSIMMOQdxt7B14DkouFAdp2zyj0GoHQiGzuLCoiUfxcV6eYLglH3rN8BCikCbSf0dwCSNHJzMathjp+7kjwDVAKcnOg+pNDCTaXlFrSIJhlgdgXQ9i7BbW9LBEkois73FVRmSnJHlEN7yUfOCogEKBfkhMKiATw7yQSomwze0yUCNPcOCUNK6fvI3wEiEdy+ucUdQ2ykqJmrrApI4CrLVI1pBp7W6bjAKRtck+KwOeQdqycVsfq0beIsGUAYk+UZlDfXpG7GEp8JrrJm9d4GyDQkJ1Va6tYodXDaqQEo7Naqe2klq7DSS8uXIRVWo116MviI1q56nOX/pIcu+V+mNe2SxTXAVSgMgC/tUpQRty+8BkxNCAyQKIcLSuJGwLBrgJEUQFlri3qA+txpzjUgaZzuAxmZASTG9ReFlqzKRD9zimeAXhSQaJaKag39rAY9A6hY25AJtKrqdK+ohjWXmPXC6XpTkrj0Wnrp7hYu80v3ra/dAeiIroKArEPCFL8NTZt6RLLepqbg/UzVrkWKcKH6U9nUPhYZoU2UHXrUI7oGSd8QNcataaBvSOqXGh8gA4zHdVilHfoGl1wagPySbbUg79BQjDVACwogv2THxZfLSK4zgBxRO7REsOwEiyDbChZsDCAKX8uYcKwChCtBkl8yxyh+aTlPGtLYzOIERMzZzblLUFxVYJil4XJRCzHEvVdEkz6CiW5mlRUe3cyKqzBLBhCvYaGeXKURBSEntWNqeVP+T0DDhTN2lKRZobK4eSZhJ6Bs7e8a0NQZLxZIgK4RqLL3XixVGkbS5mjXgKEC6uphIYDLRSuXVA0gRNcAJNHOoGfaMgqi0gaQdbAkh+L0dCKwpVFEf2ZUWc0AdOKmy3YtFaywvVciKUOqrJRnTQcMUGBrGEBY5cp/4TxYui3NJgYg5dsAkotaDl9plqq6ypJQRDCA6NKF+1NmU+mxRIxABpAYVwKKarNrCbcEDLtL3H+cpTyRzdzE/RMwsIg+x65B3QESvfTQE5c7OoGbbngCGtZNDSCFzdxQSVzapwypYpxe1YCpAHL3N/32BBT2GlO3xpI76aWdEJIzqg43lfsEJGwHuOnodwDqN7hVA05A5OJUcC0KS6imkvcFIqBUfoG4ye0/gKDGyCvEwP1xheiYVV8hGneQXiAqrvg1Iv0goqA+fYXISMP9tlqdAOTIp1Z4VjGNd7qUMFPiTtipZdjVvEE+be6zeQICqpCrnvPIteJ8NUuipBqApNdVz3l8h3iqt88A9dEJrkouvcPYzOoENGZCQwUIAyCb68rbI+/XFR/lpQvScB+BVwmeNl/bH58AlvENIAWb1StOsaVp9IoR1a9ZlSTHyNGrqgq5msuZOgnXWs3l9NK+lMyTVFxFiDlEUYVwMm/KWqIaPKWufsS1y+kEF1b8zV57J7EQaTmEeLC+m/Oe2WuvN5a0Z3C9vdjuYPbai43lZsvjRKaoGKPNXnpRKyozY+j8VM7vh6P2SBAtNRY9oKAvvXXS3ewx9a6Oi6HrHdUxXDyPo6gWkF4JJkXtqdFpJGWr7OO85JMwEIyoxaLIukHQgkDEDNrsNbrieV8lErWnqxp9uE6ZHQqf2UtYCpi19a7yE5dZvfQZkNX1qucxsMRdVDQM2JW2OtP1+QnOe0/a2xuwFbu79qyA/rO73v+A2dqqMhS1p0LJVEX/hf3Q/cbjaV0lJJ6fdbNEx0Pzv6R4fT6t77pJM96+f/+0rOky78/m7uvx/m9RC7cBBTOzD+pP6Lyvsq2wREytfV047irUtf3Q+MKt+UsfV3tqra7uLl3iunZTgpj5allV/8Dxrrpe7IIMt2bdb2UTtGv75JRsrHEsnVtqTSjpVnd3oXMrudOXOvp/35gzcP+UrneDuCGx+KyHHcQSoF2KQb0XxacYEbvnS3G5YcK+5OJyhsiyQXFJg+WGdMHPd53FjLS7uLTB0lXyo8XlDQYgx1Vc4mAZNPWPlKhMwnJ0UmNKUNf7QgUo563WO50BWx6nVr7iwIsnBpCbSwbAm59Dw02cfPXT5Q8vAnLuupdWRIPzYABhaIsyUttm0xQr8QEygHJ8PkAGkCCYErZ45aq15hfKXnZV1JSxHSQXFbnM0VMilIs6ytX1zt8QBFAx9cuu1rxyY/qGrJqVAXDzZe3NMwB29Ca3+c460jOAtOmv+EPN3kl7YNKLIxr1stGLiJWjRvTVhk+zFFWdXJoS99DrSk/8/YPskkz7C3bpu1YK+wuJjdmlpat+QtdQpjaRrXmjO3pTiUxOmJkuoW0ogKTx9TMRDkDa220jnICMLV5Lm2sKoNJxctm1AUgOsd0v9MfcAh2gdb6KAvBOiWstMl9IGaoB5NcT1u0GBmidtiInXm5LprWhyJpcA5YBcB2qsuJ1f4IvHEn/SO68NYrT1TqG3eTa1HLnH2koGrJe1MtXNawoAI9odvVyLuEvLVBWemK2mrL2SBqAYlxyvNUAxATW3WE3JCpVrvxUEj7ujFjcJSuAJON1XToqgDTOFNUJGABvokXXZfPCe7tbhwZANxN0L5WI9wCSa241ANEff3PyRdNMcux+Xd6h66JTf0bIAMQE4lSC9aLxJ7qeYUvUiDrE6ZqXMsrZcbrNxxEoDtd1lrnYP1wDFlfVDSDce11xgpVe1eGmAGIzKwmbCsBWjaGiUuGWx9g1pXnRdeavHpeKuurKPF3nHDaodBXCDUAJR+zaDbsugvE7CA0t9dUF7eG+gYqPBpDuhtL4RrfLFAs3YMWmQXF1MNJF+abt5AYgkhirpjSFm8gMoAoi/zqSAbSTtPPPdVStGRRuhPuOH5mzf9x+ou63Dx8/fvuFu/vP9Sft7E/ffg4v//xf);fillColor=none;dashed=1;rounded=1;" vertex="1" parent="1">
          <mxGeometry x="280.50666666666666" y="294.0462962962963" width="26.203703703703702" height="26.28472222222222" as="geometry" />
        </mxCell>
        <mxCell id="rtHGFJQZ5BcF_f9TNZza-242" value="" style="shape=stencil(lZzZsuW2DUW/pl9VHMDp2Un+w1Vux11x3C7bmf4+YDrSuWfjnqXutztgS5RIAhsboD7U737/6ftfP34o6fc/fvv8t4//+vTDHz99qH/6UMqnX376+NunP/ynD/XPH+p3P37+7eNff/v8j19++PL7r99vy/3T3z//c1/h319wlo4xNqqk/3z5S25Hnv/7y1++AH7+9MszwOYzwI61EFCzAlp9DajrqHKHcky4Q53nAN4AiiFAh5QZMI6engHpyB0A/ZjtCbCOBG+1Nn2EcSx6R+1Iz9PmN8xgb0ddYp/pgesxnt9QOxpdvx7p+QXZMel5y1GL2OME5KM/j6cevYF9Ol/fwz7REkpHeX4/5bzhu/Y+naOIfUlon5/t8zEL2M/DZMEdBuP35dK72BdYP3u5yLY/J/CVfXpez4nH387bP+w7jccO0+sbrJ89/Xr9Stcv5/Z42BcafzlSF/sM681fX9Xr/3+Dvm+fjqbXT7D+81J/knC+3F78w83151G+Zfx5HGV+w/vJXfeXv3/wnx6Egr3R9d2/6fuk9Zbr6c6+bj17QJH9nvl95mPp/ir0PrPul4wx0sNPa2I/wD+sYz1PVzn38wtzU3PyJh5/m5iTs/LoO8R8wtWHMpSKrnac/32YN3jz/RhqvmBi+xmm3sQt8FPtmGpOYaWpF2Rq5Uzt+c20M6q+z8SOVcS8o/kwMaeQburROvNIJXkdHb6pf7oI1gvz9LydBrqbqt7VwymsmXr+9zSfTO7Orfwwp+1Rj9rEHKngSeQeTLNS5DxWF/MJb8b9nnDxi86/sI9EeeD1TfwqM/Gi68DtJwVCXfPuyY0c8dGf36ZHigLP67RM/Pa19F7Y6/ivXfmufdLp8shIuVBS3u6Rl+bX44jM10BnnJS3O3Og+U3heRcS96SreQd+HI/wHH/D5HaS5imbiON41L4cDedL7X1/4nxFe54vtedkOto3TFzfs5+wXy5aedn3o8H+jfM1cL/7eshqv3j9CHOZZ2b0an0KdVknk/y69V+ZKCf1D5WJZtJY4Zlvw/GIv9qZNb5P8eeVE+OYR1fc71nn96E8fJ0/3MoGvJ+sOobbkz/JJ/m77Ps54y/s9f2wsFJ0v9RxstsX9kLZ3J78fwnPOzkxDs+7MFEJ8d3tOwkBGo8sncrGK3Yy1L6T0KPPa/nm+sI3LCPDrieHvew5E7Iw/oL+zU5qd9lXXM8WxlNRaGtKDo35RlPdw+0bPG8/vcdl304P/MJ+ZbVvsN/HGT0v+47Xn5rNuT1dP6SiNpCbL9XN3P4m8a5VAYsIaFblzOadFDCTAmhLOqNtUwGUwzqlFbHEFg/JTnHnDYB22Sa1VQE4pKb6SkvIC5zWiiDsABzSUM/oAGISTmyFGreMub4zW+sKIO6xyURTAA1pR0sZUsFotsNTUQC5ly3FmAIw/gUhtlXc0DvxzwowBoh25YBBIeryQBfA7sTtMhRAJCp6PQeQYLDdnsx0Q7e0/V5VAPmlcm35C9CP9E0VDAeQUObEVSTTNlCIc+YqbsYBi2JzOTX5C+DJJUkfVdl+WyhpORkVut8ThpMa4m3PDOih0FaQwG++KHeoXB6dKkF2Ox3P+4B1MvwL0JCTO0CWd+/ojHcR+dkv9YHlRSdpqv6Nk1i+AogT6PNkru8Diu64vrAi4LwrP6/WkVCmsysRugAZvYYzL6EOo2Du5QAp0jmAknHnXnqHenKDV4AhZWdjCbmfOuobAFb/PU7LHRoGxc3Xnpf3uGpHrwA2FECCqQOmPMPgpTG1GDXmUcHzOUB861jojJ0diew1Lvf8CiBsZibMS1oQXmbGmXaA3qHgnm5ZU2EHUGrbgnY6ObC3rDL9NBTjNjt69hqz4RZ1gCr7HdNPpyJSaHAA6actqvvj5JmvAKLwzIlewwGSok+WaFtgZHNhfNhkpyoA61SmWdlKmIU62ZEhrcyLr2mxygGDAF2p9Coo3DhA71BRWXGyUwOASOJmR8+rdRmmZZsdJQXg4vMMRYZ08Zv3s/t0+rk3AIpAzo4kU1yd71A0PXYAFXQcIER3DazQ9BCnHUCu0umUJH4OoMqn0ylhlWvykLrGOAdQWuYAidOLmXEP2a4DiGA5nRK/tBbuOKdToow5gFpwnE6Jq3QAeW8HSO3OAbSBRogPDiCSOEJXkAOoujaCfOgAeq0jeL6cuHNnhE6rW8TQ3rI9KJqJGTbpwiKYk5ES7kDedSaliXuuSbbLSrEcYPDQM+SKe73CXM+qlSTfEbSrHSAa1t6k9AymWvqayFydjPTgykj/cW4h1XIHUL7r3EI36UANywG6hTrm7M4tLADIuzpVEElqdZQRHCCNJTsGwfJ2bqF3aJggr9DS7ACiWCsFPmNY1Vgh33UAlYVXEIGdPAzq2CqBz1RseVkhQfa/DJjpFQNvwR3nA1AClDHP2vxoKYCKG/4SlTwk7O5wgBAgX13kBDahSgqgtMlXjvjWG/a9mspqc6LY8lj9bzIIXHw9DGnw8u6aUW/HwwAdUsMuBvdCOqSGHYYO0FzRUFZzgKTg7s8ptLuv1vS1YovwCqqAxyRyxjt8yOJjuX9zvKUA8t6b4wVVgIoi6z3dgeo0a2n/w+DS0Q7jos5MnrigbIzBa2lpFN2EiB96SLdfR66x2ZE8dEOh4sEiv1IlexC2NwAq7Dxo51ulj4qEKXT2OPvFTo53EVQrfw+RsRnxncdISPHfebNMjvdki/i9MM+Py8lTI6qA7QWbFEC0L+4hz9Zu7iC71AF4h6nLaSeQ5F7n0acCKIN1gPhjT4I7D0lKNTtrpom7yuoXwM5BvgJIGdwBpN2toUlKr1ho31R4KADv0M/epAtQeHl3FfA7d96vq8h3ATKmvKuFIWVM27dCJPOQOJBamLh0sq6XpCxU8SipXjXUOhc2iTpAaF+bmNVsrpsVgHcoeqbhoea9JPimAMqbVg5Fag9znAaJOrglTIop6bzeGwDlTXOFQvttKqftCA3pxpzaTrWFXkpHRzjjwHVzB2g7ApcInApLfHAApXKbCochUe1/huaZZqjnTNOw6wBqMo1aiANoaUS15abhYWZ1ZBtASyM0yjYm+M47xd03LgY575zhDtRKuWWy8NAIGMHN3ABCcfQO0LQifA9I33aH2J5zA6gqz9wBguh6D0jxDiRXZi37bQB4jRG6rm8agPoKZ6MM1ZY+leg2FoB64Eu7iYmKECN0n1VW/LumQQ4gGhqrFjeNWM7w5BCzA7D51EJPEveG9eudvAEUcAJO2OKQSGLq4eDnTUPcLmhlBeBDZyVYu2xNSyNpz+puG6Tyazj9uRsTGaBsJmOG7OxIZLLdDUA15xnYTOIhjXCHhIVFB1hoEKVObAeIm9lNrnS2s4fe4cVD6upbbxp1NzsqCiAhbpOdAKCUfXOX0M5MYbeFU6E3Ddaxu2B3cNMdYot+xxR/+wiZh4YJx97yAjB0lbEtxAGkM8fGk7s2/ay6hlUUEx0gqoNdRy1eAbIAWP/x7SLxwQq3haQwD4V3XDjsZxmVbFvauWV8rD62SVlCMdGCNmP84QELH1pwAO0H35CSDtTFDz3fOdJD1MEBwr3rxDhtU6NonXx2eyiVroPvMFR1cADpmxb0/ptzWA4oRQHYyRj6DOvN+faui69yG60F9aca6v0W6i4OwMNGQS5yAGkCFkpB+zgfvaWgLzmAzn+76xX1pxaMcbEFtXLDtDVNmiprZHZ95uACZFSw9hGmpoCbIenEZaShjwB1ARJ/zyBQ6cofyNmtwEMBVBWxoPPtLwMwQORTB1AT0wYUBZDIbJewcgEmdpRuQFEANhs3LSAX1vksHEYp3OplQQ29OcAcm77LwBOuFkrUDkC/ZGct4A0AvYapI3t8PuoloCiAzpbsQ4lTARjYTbdoaai3WhCZHUCS1waEk/CkJO72/qGAm2cQ7+0A7BK3sEVZtjMLW9T4TIOFHce6hlnYcYZdsRYy9lL5IIdpBNrfUyEnEKoDhTthHKA7rmLCEU9+7GPU9NBVM8X93RN66KrKeuFeGwvfs9rftWCABQB+DSh085SMX0qwGhbflYK8AujiS2eR5CWgKODmGdTdJ3aVoefp8UGTV4AZAHj+u4Tvby7sf7aQi2Y+sR9PQmWullkJX/hcUtbxHx4fFP3x088/f/ke6dv/6wdI/U9fPl5a//xf);fillColor=none;dashed=1;rounded=1;" vertex="1" parent="1">
          <mxGeometry x="263.2844444444444" y="305.89814814814815" width="32.47685185185185" height="31.099537037037035" as="geometry" />
        </mxCell>
      </root>
    </mxGraphModel>
  </diagram>
</mxfile>
